<svg width="32" height="32" viewBox="0 0 32 32" xmlns="http://www.w3.org/2000/svg">
  <defs>
    <linearGradient id="faviconPrimary" x1="0%" y1="0%" x2="100%" y2="100%">
      <stop offset="0%" style="stop-color:#667eea;stop-opacity:1" />
      <stop offset="100%" style="stop-color:#764ba2;stop-opacity:1" />
    </linearGradient>
    <linearGradient id="faviconSecondary" x1="0%" y1="0%" x2="100%" y2="100%">
      <stop offset="0%" style="stop-color:#f093fb;stop-opacity:1" />
      <stop offset="100%" style="stop-color:#f5576c;stop-opacity:1" />
    </linearGradient>
    <linearGradient id="faviconAccent" x1="0%" y1="0%" x2="100%" y2="100%">
      <stop offset="0%" style="stop-color:#4facfe;stop-opacity:1" />
      <stop offset="100%" style="stop-color:#00f2fe;stop-opacity:1" />
    </linearGradient>
    <filter id="faviconShadow">
      <feDropShadow dx="1" dy="1" stdDeviation="1" flood-color="#000000" flood-opacity="0.3"/>
    </filter>
  </defs>
  
  <!-- Rounded background with gradient -->
  <rect width="32" height="32" fill="url(#faviconPrimary)" rx="8"/>
  
  <!-- Modern document icons with depth -->
  <rect x="4" y="7" width="9" height="12" rx="1.5" fill="white" opacity="0.95" 
        filter="url(#faviconShadow)" transform="rotate(-3 8.5 13)"/>
  <rect x="6" y="9" width="5" height="0.8" rx="0.2" fill="url(#faviconPrimary)" opacity="0.6" transform="rotate(-3 8.5 13)"/>
  <rect x="6" y="11" width="4" height="0.8" rx="0.2" fill="url(#faviconPrimary)" opacity="0.5" transform="rotate(-3 8.5 13)"/>
  <rect x="6" y="13" width="3" height="0.8" rx="0.2" fill="url(#faviconPrimary)" opacity="0.4" transform="rotate(-3 8.5 13)"/>
  
  <rect x="10" y="5" width="9" height="12" rx="1.5" fill="white" opacity="0.9" 
        filter="url(#faviconShadow)" transform="rotate(5 14.5 11)"/>
  <rect x="12" y="7" width="5" height="0.8" rx="0.2" fill="url(#faviconSecondary)" opacity="0.6" transform="rotate(5 14.5 11)"/>
  <rect x="12" y="9" width="4" height="0.8" rx="0.2" fill="url(#faviconSecondary)" opacity="0.5" transform="rotate(5 14.5 11)"/>
  <rect x="12" y="11" width="3" height="0.8" rx="0.2" fill="url(#faviconSecondary)" opacity="0.4" transform="rotate(5 14.5 11)"/>
  
  <!-- Modern analysis symbol -->
  <circle cx="21" cy="21" r="5" fill="none" stroke="white" stroke-width="1.5" opacity="0.9"/>
  <circle cx="21" cy="21" r="2" fill="url(#faviconAccent)" opacity="0.7"/>
  <path d="M 24 18 L 27 15" stroke="white" stroke-width="1.5" stroke-linecap="round" opacity="0.9"/>
  
  <!-- Subtle accent dots -->
  <circle cx="6" cy="26" r="1" fill="url(#faviconAccent)" opacity="0.6"/>
  <circle cx="26" cy="6" r="0.8" fill="url(#faviconSecondary)" opacity="0.5"/>
</svg>